<?xml version="1.0" encoding="UTF-8" standalone="no"?> <svg id="Layer_1" enable-background="new 0 0 512.21 512.21" height="512" viewBox="0 0 512.21 512.21" width="512" xmlns="http://www.w3.org/2000/svg"><g><path d="m511.921 286.293c-.024-43.634-9.563-81.192-28.349-111.631-13.432-21.764-31.959-40.059-53.579-52.91l-7.664 12.895c43.048 25.589 74.592 74.7 74.592 151.813l.009.354c.044.941 3.9 94.739-43.003 146.415l-1.946 2.145v61.837h-92.979v-41.114h35.306v-15h-234.387v15h36.89v41.114h-83.8v-57.126l-3.679-2.179c-50.771-30.06-60.072-76.406-60.911-81.232v-37.875h-15v30.971h-18.25v-103.184c27.568-2.379 51.695-17.467 65.729-39.805 7.187-11.433 10.83-21.756 10.83-30.682v-100.329c13.3 1.005 41.508 7.395 54.363 42.283l1.81 4.913 15.035-.017-.016-15-4.711.005c-18.829-43.847-58.703-47.354-70.82-47.354-3.047 0-3.511.11-10.66.795v114.705c0 5.973-2.949 13.821-8.53 22.7-13.034 20.746-36.041 33.109-60.529 33.109h-7.5v132.86h34.632c3.815 15.506 17.659 55.218 63.208 83.801v63.64h113.8v-56.11h132.19v56.11h122.978v-71.096c25.426-29.372 36.3-69.33 40.947-98.014 4.936-30.462 4.1-54.29 3.994-56.807z"/><path d="m261.68 391.191h15v15h-15z"/><path d="m306.68 391.191h15v15h-15z"/><path d="m216.68 391.191h15v15h-15z"/><path d="m110.488 210.46h15v15h-15z"/><path d="m426.116 152.794h-29.934c14.399-33.704 11.48-74.792-12.056-107.302l-12.15 8.795c21.264 29.374 22.981 66.797 8.627 96.563h-79.903l49.08-65.09c-22.059 0-13.197 0-36.336 0l23.72-47.63h-49.188l-44.561 89.96h32.159l-11.422 22.76h-54.525c-6.189-12.827-9.317-26.729-9.317-41.04 0-52.278 42.532-94.81 94.811-94.81 25.769 0 49.869 10.159 67.86 28.605l10.738-10.473c-20.838-21.365-48.751-33.132-78.598-33.132-62.551 0-113.032 52.555-109.649 115.826.7 12.891 3.584 25.282 8.576 36.968h-29.932v15h262zm-158.53-39.704 29.699-59.96h15.652l-23.72 47.63h30.465l-37.77 50.09h-.977l18.95-37.76c-19.995 0-12.303 0-32.299 0z"/></g></svg>